<svg width="1280" height="720" viewBox="0 0 1280 720" fill="none" xmlns="http://www.w3.org/2000/svg">
  <g clip-path="url(#clip0)">
    <rect width="1280" height="720" fill="#22282D" />
    <g clip-path="url(#clip1)">
      <rect width="1296" height="569" transform="translate(-8 76)" fill="#22282D" />
      <path
        d="M1129.22 598.783C1129.22 598.783 1136.93 520.122 1133.98 508.977C1132.17 515.368 1100.51 566.499 1100.51 566.499V516.68C1100.51 516.68 1093.46 539.621 1091.16 546.67C1088.87 536.015 1072.3 504.389 1074.76 507.995C1077.22 511.598 1077.71 544.867 1074.76 544.867C1072.47 544.209 1063.61 513.728 1054.75 503.732C1058.19 507.174 1060.66 533.067 1063.61 546.015C1062.46 541.261 1038.68 524.873 1027.19 522.576C1028.34 530.115 1045.4 544.209 1048.85 554.209C1052.29 564.206 1046.55 575.351 1046.55 575.351L1068.2 591.574L1129.22 598.783Z"
        fill="#161B22" />
      <path
        d="M-8 560.109L35.3039 449.979L39.2406 483.578L71.0624 426.873L78.4436 448.507L93.3704 410.484L110.102 463.418L136.346 383.608L156.03 449.652L183.423 410.484C183.423 410.484 153.897 421.301 153.897 418.351C153.897 415.401 193.757 362.958 193.757 362.958C193.757 362.958 157.014 376.725 157.014 373.775C157.014 370.989 188.18 342.145 198.842 323.955C209.504 305.763 228.531 242.997 228.531 242.997C228.531 242.997 259.041 320.349 275.28 328.707C280.529 316.252 297.259 281.017 297.259 281.017L264.126 295.603C264.126 295.603 313.991 190.554 320.224 166.955C326.293 143.192 324.817 151.386 335.807 172.035C343.352 189.571 352.373 247.094 380.095 279.87C406.339 304.452 361.232 286.917 361.232 286.917L401.91 364.761L437.671 295.603L458.831 349.356L490.487 279.87L454.729 304.944C454.729 304.944 486.552 258.074 493.438 221.2C500.164 184.163 508.695 125.329 508.695 125.329L553.638 211.039C553.638 211.039 596.616 92.0605 598.254 76C603.338 132.867 671.41 268.398 671.41 268.398C671.41 268.398 697.822 212.187 700.278 191.373C708.482 212.022 815.594 555.685 815.594 555.685C815.594 555.685 513.451 575.351 395.679 575.678C277.904 576.005 59.9083 568.139 31.2029 565.681C13.4879 564.206 -8 560.109 -8 560.109Z"
        fill="#161B22" />
      <g opacity="0.5">
        <path opacity="0.5"
          d="M1136.27 503.735C1134.96 499.638 1134.47 495.214 1135.13 490.79C1135.62 488.82 1136.93 486.526 1138.9 486.526C1139.88 486.694 1140.7 487.021 1141.52 487.675C1143.17 489.147 1144.8 490.627 1146.11 492.426C1156.78 505.044 1164.65 519.795 1169.74 535.528C1169.08 527.661 1173.34 520.126 1179.25 514.877C1185.15 509.635 1192.7 506.847 1200.41 504.88C1203.2 504.062 1206.64 503.735 1208.77 505.702C1210.08 507.178 1210.58 509.308 1209.92 511.274C1209.26 513.077 1208.12 514.713 1206.64 516.025C1203.2 518.974 1199.26 521.435 1195.33 523.398C1186.79 528.156 1178.76 533.725 1171.21 539.952C1170.56 540.61 1169.74 541.101 1168.91 541.264C1168.42 541.264 1167.76 541.264 1167.27 541.101C1150.87 537.331 1140.37 518.483 1136.27 503.735Z"
          fill="#30363D" />
      </g>
      <path
        d="M1088.54 597.969C1088.05 596.333 1100.67 555.361 1100.67 555.361C1100.67 555.361 1138.24 532.256 1144.97 528.319C1151.69 524.386 1161.04 525.044 1161.04 525.044L1181.55 517.341C1181.55 517.341 1237.97 532.256 1239.61 532.747C1241.25 533.238 1251.26 551.592 1255.69 557.655C1260.11 563.718 1262.25 567.652 1262.9 577.485L1263.39 587.481L1233.54 619.438H1199.26C1199.26 619.438 1174.98 628.776 1169.41 627.141C1163.83 625.505 1143.98 620.586 1136.76 614.359C1129.55 608.132 1088.54 597.969 1088.54 597.969Z"
        fill="#484F58" />
      <path
        d="M1161.37 532.249C1161.21 531.1 1158.58 502.746 1185.48 471.939L1187.94 474.072C1174.33 489.475 1168.75 504.389 1166.45 514.219C1163.99 524.873 1164.65 531.755 1164.65 531.918L1161.37 532.249Z"
        fill="#484F58" />
      <path
        d="M1188.43 476.359C1185.48 476.359 1183.02 473.905 1183.02 470.954C1183.02 468.005 1185.48 465.548 1188.43 465.548C1191.39 465.548 1193.85 468.005 1193.85 470.954C1193.85 473.905 1191.39 476.359 1188.43 476.359ZM1188.43 468.823C1187.29 468.823 1186.3 469.808 1186.3 470.954C1186.3 472.099 1187.29 473.08 1188.43 473.08C1189.58 473.08 1190.57 472.099 1190.57 470.954C1190.57 469.808 1189.58 468.823 1188.43 468.823Z"
        fill="#484F58" />
      <path
        d="M1203.52 485.705C1200.73 485.705 1198.44 483.411 1198.44 480.627C1198.44 477.842 1200.73 475.548 1203.52 475.548C1206.31 475.548 1208.61 477.842 1208.61 480.627C1208.61 483.411 1206.31 485.705 1203.52 485.705ZM1203.52 478.824C1202.54 478.824 1201.72 479.641 1201.72 480.627C1201.72 481.608 1202.54 482.43 1203.52 482.43C1204.51 482.43 1205.33 481.608 1205.33 480.627C1205.33 479.641 1204.51 478.824 1203.52 478.824Z"
        fill="#484F58" />
      <path
        d="M1181.38 494.56C1176.79 494.56 1173.18 492.593 1173.02 492.43L1174.65 489.642C1174.98 489.805 1181.38 493.411 1187.12 489.642C1191.55 486.857 1195.81 483.578 1199.75 480.303L1201.88 482.76C1197.78 486.203 1193.35 489.478 1188.92 492.43C1186.47 494.066 1183.84 494.56 1181.38 494.56Z"
        fill="#484F58" />
      <path
        d="M1151.36 583.712C1159.89 575.682 1169.41 568.47 1179.41 562.243C1186.47 563.718 1193.03 562.573 1198.44 563.391C1209.92 553.227 1223.37 541.431 1235.18 531.758C1221.73 528.156 1181.38 517.501 1181.38 517.501L1160.88 525.208C1160.88 525.208 1151.52 524.713 1144.8 528.483C1139.55 531.595 1114.46 547 1104.61 553.064C1111.01 562.41 1141.52 576.336 1151.36 583.712Z"
        fill="#6E7681" />
      <path
        d="M1105.1 553.387L1104.61 552.733C1113.97 547 1139.39 531.264 1144.8 528.152C1151.2 524.55 1159.89 524.713 1161.04 524.877L1181.55 517.174H1181.71C1182.04 517.338 1222.06 527.825 1235.51 531.428L1235.34 532.249C1222.39 528.81 1184.33 518.646 1181.71 517.992L1161.37 525.695H1161.21C1161.04 525.695 1151.86 525.204 1145.46 528.974C1139.88 531.922 1114.46 547.655 1105.1 553.387Z"
        fill="#6E7681" />
      <path
        d="M193.265 637.628C272.26 637.628 336.299 631.316 336.299 623.531C336.299 615.75 272.26 609.438 193.265 609.438C114.269 609.438 50.231 615.75 50.231 623.531C50.231 631.316 114.269 637.628 193.265 637.628Z"
        fill="#161B22" fill-opacity="0.5" />
      <path
        d="M271.015 578.463C271.015 578.463 273.803 599.768 279.38 605.504C284.957 611.237 307.757 627.137 308.905 624.185C297.752 610.255 285.942 575.842 285.942 575.842L271.015 578.463Z"
        fill="#30363D" />
      <path
        d="M197.859 579.938C197.531 580.102 197.367 580.266 197.203 580.429C196.875 580.756 197.203 581.414 197.367 581.741C199.991 586.165 201.96 591.08 203.436 596.002C204.42 599.604 206.388 604.523 209.669 602.88C215.41 599.772 210.653 592.232 209.669 585.838C210.325 589.771 223.12 585.184 227.22 579.284C232.469 571.745 219.839 570.6 215.246 571.745C209.341 573.217 203.436 577.317 197.859 579.938Z"
        fill="#30363D" />
      <path
        d="M246.574 533.889C238.865 533.071 230.991 533.234 223.938 536.346C217.212 539.298 211.799 544.703 206.879 550.112C205.402 551.915 203.762 553.391 201.794 554.703C199.825 555.685 197.693 556.176 195.561 556.176C185.227 556.503 175.549 550.77 168.66 543.231C161.77 535.692 156.85 526.513 151.601 517.665C143.235 503.572 133.065 489.475 118.631 481.772C98.6188 470.957 72.3741 474.236 54.0026 488.002C35.6314 501.601 24.9695 524.223 23.3293 546.837C23.0012 551.915 23.9853 558.309 28.9065 559.454L36.4518 544.867C40.2244 537.658 44.1612 530.283 50.5582 525.204C56.9553 520.122 66.4691 518.319 73.1944 522.907C78.4432 526.513 80.5756 533.234 81.2318 539.625C81.888 546.015 81.3955 552.406 82.8721 558.636C86.4809 573.711 101.244 584.202 116.334 587.151C127.324 589.281 138.806 588.299 149.304 584.202C166.691 577.317 181.782 562.243 200.317 563.388C202.778 569.942 209.175 574.369 215.9 576.336C222.625 578.299 229.843 577.808 236.732 577.481L227.547 588.463C232.303 598.129 238.865 606.817 246.574 614.192C250.347 604.686 247.23 595.017 241.325 586.656C242.801 583.712 245.262 581.251 248.214 579.942C255.103 583.544 273.147 582.559 280.856 581.578C280.528 587.151 281.676 599.935 285.285 605.341C288.893 610.75 300.376 622.386 306.937 625.828C311.037 628.118 323.668 631.07 325.636 627.301C310.053 620.746 294.635 604.85 294.799 587.972C294.799 579.775 302.016 574.369 301.524 567.484C301.196 561.421 291.354 554.376 287.089 550.934C275.607 541.591 261.5 535.692 246.574 533.889Z"
        fill="#484F58" />
      <path
        d="M160.294 561.752C154.225 561.752 147.828 563.06 143.399 558.146C141.923 556.176 140.61 554.049 139.462 551.915C135.854 546.346 131.425 545.688 125.028 546.182C117.318 546.673 114.53 543.722 111.413 536.677C102.556 517.011 80.2477 501.605 58.7597 513.077C42.3568 521.925 32.3508 541.264 27.7579 558.636C27.7579 558.8 27.594 558.964 27.594 559.127C27.9224 559.291 28.2499 559.454 28.7423 559.618L36.4518 545.034C40.2244 537.822 44.1608 530.446 50.5579 525.368C56.9556 520.289 66.4691 518.483 73.1941 523.07C78.4432 526.676 80.5756 533.398 81.2318 539.788C81.888 546.182 81.3959 552.569 82.8721 558.8C86.4809 573.875 101.244 584.366 116.334 587.318C127.324 589.444 138.806 588.463 149.304 584.366C161.606 579.448 172.924 570.436 185.063 566.012C177.517 562.733 169.316 561.752 160.294 561.752Z"
        fill="#30363D" />
      <g opacity="0.6">
        <path opacity="0.8"
          d="M243.129 555.194C243.457 555.194 257.892 564.863 257.728 569.451C257.564 574.039 244.605 580.923 244.605 580.923C244.605 580.923 251.002 572.893 249.526 567.979C248.05 563.06 243.129 555.194 243.129 555.194Z"
          fill="#8B949E" />
      </g>
      <path
        d="M297.259 559.454C295.782 564.373 292.994 568.96 291.846 574.206C290.206 580.596 291.518 587.481 295.454 592.723C295.126 591.251 295.126 589.608 295.126 588.136C295.126 579.942 302.344 574.533 301.851 567.652C301.523 564.863 299.719 562.079 297.259 559.454Z"
        fill="#30363D" />
      <path
        d="M307.102 549.458C310.875 547.982 313.992 551.915 311.367 560.927L316.124 561.09C315.304 558.636 314.975 556.012 315.304 553.391C315.468 551.097 317.436 549.458 319.733 549.621H319.896C322.521 549.785 323.341 551.915 323.505 554.536C323.505 556.993 323.013 559.454 321.865 561.748C327.606 565.849 330.722 572.89 329.902 579.938C329.41 582.396 328.918 584.857 328.754 587.314C328.59 589.935 329.902 592.232 332.035 593.541C333.347 594.032 334.823 594.195 336.136 594.523C337.448 594.85 338.924 596.002 338.76 597.474C338.596 598.619 337.448 599.274 336.463 599.935C328.426 603.868 319.076 603.868 311.203 599.935C304.314 596.493 298.737 589.935 297.752 582.396C297.097 577.317 298.572 572.399 301.853 568.466C303.002 567.157 306.61 565.351 307.102 563.715C304.97 561.09 302.017 551.424 307.102 549.458Z"
        fill="#484F58" />
      <path
        d="M336.298 598.619C337.475 598.619 338.43 597.663 338.43 596.489C338.43 595.312 337.475 594.359 336.298 594.359C335.12 594.359 334.166 595.312 334.166 596.489C334.166 597.663 335.12 598.619 336.298 598.619Z"
        fill="#30363D" />
      <g opacity="0.6">
        <path opacity="0.8"
          d="M130.442 508.319C139.135 518.152 145.86 529.461 154.062 539.621C162.263 549.781 173.582 557.154 186.376 560.269C187.36 560.105 188.18 559.942 189.164 559.778C180.143 558.96 171.777 553.715 165.544 546.997C158.491 539.458 153.734 530.279 148.485 521.431C140.119 507.338 129.95 493.241 115.515 485.538C105.509 480.296 94.191 478.166 82.8727 479.474C101.244 482.917 118.468 494.72 130.442 508.319Z"
          fill="#8B949E" />
      </g>
      <g opacity="0.6">
        <path opacity="0.8"
          d="M273.147 549.127C281.184 553.718 287.417 560.269 292.994 567.481C293.322 565.514 293.979 563.548 294.634 561.748C290.534 556.993 285.613 552.73 280.364 549.291C268.226 541.424 254.283 539.13 240.341 536.673L245.097 538.967C254.447 542.409 264.453 544.045 273.147 549.127Z"
          fill="#8B949E" />
      </g>
      <g opacity="0.6">
        <path opacity="0.8"
          d="M305.626 555.521C310.383 555.194 307.759 563.551 310.383 564.533C312.516 565.354 315.14 563.715 317.601 564.696C320.225 566.012 322.194 567.975 323.506 570.6C325.31 574.206 325.31 577.481 324.982 581.414C324.818 586.493 325.146 591.742 331.051 593.214C329.247 591.742 328.262 589.608 328.426 587.318C328.591 584.857 329.083 582.396 329.575 579.942C330.395 572.893 327.278 565.849 321.537 561.752C322.685 559.454 323.177 556.993 323.177 554.54C323.013 551.915 322.193 549.785 319.569 549.621C317.272 549.294 315.304 550.934 314.976 553.227V553.391C314.648 556.012 314.976 558.636 315.796 561.094L311.039 560.927C313.664 551.752 310.547 547.818 306.775 549.458C304.314 550.443 303.822 553.06 303.986 556.012C304.642 555.848 305.134 555.685 305.626 555.521Z"
          fill="#8B949E" />
      </g>
      <path
        d="M939.6 493.902C938.945 491.117 1069.02 341.655 1080.17 331.494C1091.33 321.334 1191.22 203.666 1198.44 199.569C1202.87 189.736 1188.27 181.378 1181.71 185.967C1175.64 197.93 1070.33 322.153 1060.82 332.314C1051.31 342.474 975.034 424.908 941.733 451.291C934.516 471.288 927.79 474.73 922.706 480.463C921.884 483.578 922.87 487.839 928.94 491.772C935.007 495.705 939.6 493.902 939.6 493.902Z"
        fill="#6E7681" />
      <path
        d="M1163.66 227.754C1154.15 237.096 1118.39 279.213 1109.04 290.194C1089.03 313.957 1006.19 407.698 985.035 431.297C975.198 442.44 937.631 480.79 927.79 490.95C928.118 491.278 928.613 491.605 929.104 491.768C935.171 495.869 939.764 493.899 939.764 493.899C939.109 491.114 1069.18 341.653 1080.34 331.492C1091.49 321.331 1191.39 203.663 1198.6 199.566C1199.75 196.944 1199.59 193.994 1198.11 191.536C1187.61 204.483 1175.48 216.119 1163.66 227.754Z"
        fill="#484F58" />
      <path
        d="M925.33 477.671C924.344 478.493 923.525 479.478 922.706 480.459C921.884 483.575 922.87 487.835 928.94 491.768C935.007 495.701 939.6 493.898 939.6 493.898C939.928 492.913 940.583 492.095 941.238 491.277C937.631 485.047 932.052 480.296 925.33 477.671Z"
        fill="#30363D" />
      <path
        d="M684.402 576.13L689.86 559.042L720.056 540.869L762.262 516.513L782.635 496.16L805.92 470.349L787.73 463.08L770.629 445.633L772.085 428.549L663.666 483.436L605.816 501.975L573.801 508.518L564.707 501.402L583.624 483.073L621.824 457.991L673.126 427.821L734.975 400.559L795.004 382.384L822.291 374.388L790.639 358.03L769.539 332.949L763.718 304.233L767.353 286.785L766.264 257.705L771.722 228.262L782.998 208.633L776.087 178.826L778.27 173.011L800.825 167.922L825.567 172.647L838.665 166.104L881.23 163.194L920.16 176.283L945.991 197.365L955.815 210.813L967.457 211.904L977.28 224.989L978.737 244.254L975.824 264.246L978.007 279.877L976.187 307.866L965.638 331.13L989.649 322.042L1025.67 303.14L1059.51 287.51L1100.62 279.15L1118.44 289.691L1121.72 299.871L1114.81 328.949L1092.61 351.849L1069.69 360.573L1052.59 359.846L1039.13 352.213L1035.86 342.402L1016.57 352.213L974.005 368.933L931.077 380.203L900.514 384.565L863.767 382.383L874.683 400.922L897.968 396.196L920.16 399.47L935.805 414.007L941.626 445.633L931.803 472.895L916.158 481.619L913.249 496.519L946.354 560.496L957.271 551.41L984.195 547.047L999.109 546.684L1003.11 558.316L991.106 582.67L971.459 598.299L945.628 610.657L918.341 615.021L907.791 608.84L896.875 593.939L861.584 476.167L853.58 476.53L845.939 499.069L828.112 532.509L805.92 559.771L777.543 580.852L775.724 584.487L782.998 597.574L784.454 612.115L791.002 613.933L790.275 618.293L776.45 628.108L758.26 633.197L724.058 629.562L700.047 617.204L685.858 595.031L684.402 576.13Z"
        fill="#0D1117" />
      <path
        d="M808.541 645C899.132 645 972.57 633.19 972.57 618.616C972.57 604.043 899.132 592.232 808.541 592.232C717.949 592.232 644.511 604.043 644.511 618.616C644.511 633.19 717.949 645 808.541 645Z"
        fill="#161B22" fill-opacity="0.5" />
      <path
        d="M1051.12 359.883C1047.87 358.803 1042.56 354.934 1040.31 353.135L1037.6 349.086C1052.91 326.591 1079.2 293.836 1086.24 297.351C1091.64 300.05 1099.75 303.903 1113.26 296.001C1116.35 298.404 1120.8 302.854 1120.01 309.944C1117.31 334.239 1101.1 343.687 1088.94 353.135C1076.78 362.583 1055.17 361.233 1051.12 359.883Z"
        fill="#0D1117" />
      <path
        d="M717.432 457.483L771.993 431.007L792.234 400.152L808.338 384.856L825.232 376.416L789.068 384.856L713.306 410.175L657.414 438.396L595.309 476.11L568.909 498.529L566.534 505.912L577.621 509.607L601.294 504.208L657.414 485.52L717.432 457.483Z"
        fill="#0D1117" />
      <path
        d="M766.495 632.069H740.874L721.559 628.919L703.817 620.252L688.839 600.561L685.292 574.568L691.203 559.995L718.009 543.451L756.644 521.399L774.382 506.825L798.429 480.829L839.032 514.703L818.531 546.602L800.793 564.326L774.382 584.017L782.264 598.591L784.629 614.345H787.392L793.697 616.315L782.264 626.554L766.495 632.069Z"
        fill="#0D1117" />
      <path d="M888.807 564.28L883.99 551.36L939.529 548.064L947.134 562.762L888.807 564.28Z" fill="#0D1117" />
      <path d="M929.004 593.242L896.686 596.959L912.416 613.819L926.146 616.105L959.895 606.674L929.004 593.242Z"
        fill="#0D1117" />
      <path d="M952.29 553.131L966.731 548.064H979.328H998.38L1002.99 553.131V562.186L946.144 560.343L952.29 553.131Z"
        fill="#0D1117" />
      <path fill-rule="evenodd" clip-rule="evenodd"
        d="M953.625 209.699C951.937 207.047 949.032 203.018 944.521 198.422C937.14 190.884 923.853 180.067 902.365 171.873C877.759 162.532 849.877 163.515 825.926 174.495L825.107 174.823L824.288 174.495C799.896 165.775 785.967 171.334 780.142 174.99C788.129 177.757 802.933 186.591 808.541 206.125L804.603 207.272C799.027 187.606 782.788 179.74 776.881 178.265L784.757 207.108L784.262 207.928C784.166 208.026 778.551 215.863 774.058 226.986C774.232 226.855 774.407 226.73 774.588 226.61C777.54 224.643 781.147 224.152 784.921 225.463C793.281 228.248 799.348 237.419 805.746 247.084L805.753 247.096C811.987 256.601 818.382 266.27 826.418 268.4C832.022 269.839 843.241 268.471 856.268 266.882L857.258 266.761L857.543 266.726C882.918 263.618 914.396 259.764 929.268 272.661C940.256 282.003 950.755 298.555 937.963 323.793C935.104 329.502 927.894 341.302 924.234 347.285C923.692 348.171 923.23 348.93 922.87 349.522C924.511 351.489 926.972 355.586 925.822 360.666C925.487 362.219 924.857 363.706 923.924 365.125C928.068 363.055 932.059 360.78 935.855 358.317C936.154 357.768 936.716 357.434 937.329 357.349C937.656 357.128 937.984 356.906 938.312 356.683L938.126 356.405C938.262 356.324 938.621 356.216 939.17 356.089C939.754 355.681 940.33 355.267 940.907 354.849C938.34 354.036 936.097 353.494 934.352 353.291L934.844 349.195C937.414 349.503 940.882 350.439 944.849 351.842C951.311 346.671 956.979 340.891 961.579 334.609C975.376 315.838 975.461 287.768 974.407 273.556C973.257 276.272 972.15 278.297 971.26 279.38L967.977 276.758C970.932 272.989 978.473 252.668 976.344 234.477C975.198 225.299 971.915 218.416 966.172 213.827C946.041 209.835 922.453 228.572 919.288 231.087L919.285 231.088C919.075 231.257 918.953 231.352 918.932 231.363L916.312 228.249C917.234 227.457 934.634 212.752 953.625 209.699ZM941.79 359.623C943.727 359.269 946.853 358.856 950.47 358.476C954.373 360.153 958.51 362.141 962.555 364.303C959.471 365.616 956.014 367.026 952.318 368.487C948.655 364.966 944.973 361.88 941.79 359.623ZM948.153 370.115C944.436 366.659 940.783 363.744 937.82 361.866C923.219 371.269 905.922 378.002 888.063 381.196C897.69 381.387 909.864 380.974 923.877 379.091L923.853 379.021C932.067 376.167 940.494 373.076 948.153 370.115ZM948.705 374.259C949.584 373.913 950.467 373.563 951.353 373.209C951.442 373.297 951.528 373.385 951.617 373.474C950.641 373.743 949.669 374.006 948.705 374.259ZM955.427 371.584C960.084 369.708 963.865 368.107 966.934 366.734C967.667 367.156 968.39 367.583 969.109 368.013C964.762 369.509 960.379 370.923 956.028 372.21C955.829 372.001 955.63 371.792 955.427 371.584ZM971.506 364.612C972.396 365.15 973.275 365.694 974.14 366.243C984.191 362.624 993.933 358.66 1002.56 354.928C999.857 355.281 997.596 355.422 995.699 355.422C988.809 355.422 986.513 353.455 985.858 352.145C985.366 351.161 985.53 349.85 986.349 348.539C989.863 342.48 1010.14 328.046 1025.73 327.267C1031.53 318.462 1046.36 301.036 1088.38 296.096L1088.87 300.193C1048.03 304.946 1034.25 320.843 1027.36 332.315C1025.88 334.773 1025.88 336.248 1026.21 336.576C1027.03 337.559 1030.64 337.395 1033.92 335.92L1036.54 334.609L1036.87 337.559C1038.68 359.519 1061.8 358.372 1062.78 358.208C1084.93 358.208 1100.18 343.622 1107.24 334.937C1115.44 324.94 1123.97 299.374 1113.14 287.738C1103.17 276.799 1084.57 282.615 1063.19 289.303L1062.95 289.377C1060.98 290.033 1058.85 290.688 1056.72 291.343L1056.72 291.344C1034.44 298.252 975.023 329.607 967.055 333.816C966.364 334.922 965.634 336.007 964.862 337.067C960.493 343.005 955.213 348.511 949.235 353.5C949.854 353.748 950.478 354.005 951.111 354.27C962.053 352.997 976.394 352.145 979.627 354.767C980.773 355.586 981.101 357.061 980.61 358.208C980.286 359.178 979.68 360.645 971.506 364.612ZM967.358 362.204C971.473 360.347 974.521 358.792 976.017 357.716C973.069 357.037 965.951 357.227 958.791 357.741C961.654 359.127 964.541 360.628 967.358 362.204ZM973.535 370.8C968.753 372.487 963.908 374.088 959.087 375.543C964.114 381.246 968.422 387.346 970.437 392.624C970.769 393.607 970.274 394.918 969.291 395.246C969.127 395.409 968.8 395.409 968.632 395.409C967.813 395.409 966.994 394.918 966.667 394.098C964.637 388.845 960.03 382.561 954.782 376.804C948.541 378.575 942.381 380.068 936.481 381.152C919.096 384.429 904.007 385.413 892.033 385.413C878.738 385.413 869.474 384.167 865.554 383.507L875.94 399.143C883.203 397.327 890.036 395.765 895.971 394.918C908.272 393.115 920.41 396.556 929.268 404.423C938.782 412.945 943.866 425.564 943.538 440.149C942.719 468.99 925.494 479.972 917.13 484.887C917.006 487.86 916.6 491.114 915.062 493.731C915.372 494.379 915.852 495.392 916.486 496.722C921.453 507.21 935.591 537.054 946.169 556.67C956.826 543.113 983.746 544.959 989.959 546.51C990.041 546.51 990.123 546.467 990.205 546.428C990.287 546.385 990.369 546.346 990.451 546.346C993.402 545.201 999.797 542.74 1004.23 549.788C1009.15 557.655 996.685 577.481 991.928 583.712C977.327 603.047 943.374 615.341 924.511 616.817C924.016 616.98 923.525 616.98 922.87 616.98C905.481 616.98 895.316 595.838 894.988 594.853L894.821 594.526L879.4 542.285C879.344 542.171 879.29 542.054 879.24 541.922L879.29 541.908L860.074 476.821C858.608 476.956 857.133 477.07 855.667 477.163C848.325 498.33 838.309 518.536 825.926 537.171C808.38 563.121 784.782 578.495 777.088 583.086C785.437 592.275 786.911 605.255 786.167 611.61C789.396 610.711 791.155 610.753 792.301 611.735C793.448 612.72 793.943 613.865 793.943 615.341C793.775 617.635 791.974 621.404 779.345 628.613C772.947 632.546 762.12 634.189 750.637 634.189C736.039 634.189 720.619 631.401 711.437 626.813C697.822 619.928 688.963 609.768 684.865 596.823C680.272 581.741 683.712 566.83 687.158 560.276C689.949 555.194 709.464 543.885 736.694 528.483C744.57 524.059 752.115 519.799 756.871 516.847C771.601 507.825 795.63 479.748 802.83 471.174C794.997 468.727 788.563 465.754 784.262 462.6C771.06 452.82 766.385 443.748 769.864 431.28C751.431 440.96 692.175 471.818 669.609 481.775C658.126 486.693 600.226 509.798 575.456 509.798C572.174 509.798 569.386 509.308 567.581 508.49C565.12 507.341 564.302 505.702 563.974 504.393C563.155 501.441 561.183 493.575 611.378 462.109C637.949 445.395 670.591 427.694 691.096 417.534C725.921 400.278 797.635 378.928 816.213 373.567C797.112 365.533 780.798 351.632 769.831 333.953C763.319 323.934 760.631 312.055 762.18 300.368C756.537 291.934 742.388 286.588 734.234 286.1C733.088 286.1 732.269 285.116 732.269 283.969C732.269 282.822 733.252 282.002 734.398 282.002C742.11 282.584 755.632 287.035 763.166 295.126C763.394 294.213 763.643 293.304 763.921 292.397L763.907 292.38C762.269 289.856 749.868 270.731 733.579 263.976C732.596 263.484 732.105 262.337 732.433 261.353C732.924 260.37 734.07 259.878 735.057 260.206C749.355 266.096 760.393 280.228 765.089 286.919C765.31 284.153 765.171 280.831 764.986 276.479C764.961 275.881 764.936 275.265 764.911 274.628C764.583 268.892 764.252 261.845 764.252 252.34L764.256 252.012H764.252L764.256 251.953C764.409 230.467 777.23 210.524 780.164 206.289L772.783 178.92C772.616 178.429 772.616 177.773 772.783 177.282C772.929 176.398 773.474 175.647 774.179 175.028L773.766 174.659L773.812 174.614C774.93 173.473 789.944 158.15 824.78 170.235C849.55 159.09 878.254 158.271 903.679 167.94C940.248 181.747 954.373 202.674 958.068 209.211C961.219 209.031 964.381 209.221 967.486 209.894L967.977 210.058L968.305 210.386C975.034 215.63 979.132 223.497 980.282 233.985C981.617 244.504 979.951 255.654 977.537 264.374L977.59 264.758C977.982 267.561 979.371 277.456 978.801 290.033C978.416 300.731 976.508 314.774 970.605 327.3C987.958 318.193 1035.48 293.651 1055.57 287.411C1056.64 287.083 1057.66 286.756 1058.68 286.429L1058.69 286.427L1058.69 286.426C1059.72 286.099 1060.74 285.771 1061.8 285.444L1062.13 285.341C1083.99 278.496 1104.51 272.07 1116.26 284.788C1129.06 298.719 1119.21 326.907 1110.52 337.395C1102.97 346.572 1086.74 362.141 1062.95 362.141C1062.95 362.469 1062.62 362.469 1061.97 362.469C1057.54 362.469 1039.37 361.477 1034.07 344.743C1026.69 348.491 1003.81 359.722 978.363 369.063C980.065 370.26 981.663 371.466 983.123 372.667C983.33 372.734 983.533 372.83 983.725 372.957C985.858 374.76 987.663 376.563 989.301 378.693C989.959 379.513 989.796 380.824 988.973 381.643C988.646 382.135 988.154 382.299 987.663 382.299C987.004 382.299 986.513 381.971 986.021 381.479C985.851 381.251 985.676 381.027 985.502 380.807C982.938 377.639 978.637 374.173 973.535 370.8ZM884.528 545.066L898.755 593.217C898.954 593.651 899.681 595.084 900.877 596.991C902.44 595.056 903.498 585.212 897.772 565.518C893.767 551.887 888.234 547.036 884.528 545.066ZM903.22 600.415C903.327 600.316 903.426 600.209 903.515 600.099C907.781 596.166 906.958 582.399 901.71 564.373C895.896 544.682 886.418 541.204 883.153 540.005L883.014 539.955L877.788 522.281C878.468 522.572 879.176 522.747 879.895 522.747C880.387 522.747 880.714 522.747 880.878 522.91C881.861 522.583 882.519 521.925 883.011 520.944C885.471 516.193 885.635 499.311 882.356 489.314C880.397 483.45 877.699 478.486 875.224 475.349L896.79 473.251C897.772 473.745 898.428 474.567 898.755 475.712C898.755 476.039 898.591 477.02 898.427 477.682C897.445 482.433 895.971 490.3 899.086 494.887C900.4 496.69 902.038 497.672 904.334 497.999C905.317 498.162 906.139 498.162 906.958 498.162C908.995 498.162 910.679 497.729 911.954 496.982C917.095 507.942 939.002 554.309 949.773 571.258L953.216 568.96C951.788 566.702 950.15 563.893 948.37 560.688C956.893 546.723 986.054 549.308 989.464 550.606L990.123 550.934L990.778 550.606C990.942 550.525 991.149 550.443 991.351 550.361H991.355C991.558 550.279 991.764 550.197 991.928 550.116C995.699 548.64 998.323 547.982 1000.79 551.915C1003.41 556.179 996.521 570.767 988.645 581.251C975.034 599.441 941.897 611.404 924.18 612.72C914.919 613.438 907.596 606.287 903.22 600.415ZM1032.88 340.737C1030.75 341.826 1026.71 343.852 1021.29 346.424L1021.29 346.408C1006.69 350.669 992.42 352.472 989.792 350.505C991.896 346.757 1008.82 333.82 1023.12 331.643C1021.17 335.663 1022.08 338.039 1023.26 339.361C1025.19 341.612 1029.17 341.813 1032.88 340.737ZM902.529 373.449L902.568 373.567C890.434 377.206 877.691 379.185 865.13 379.185C861.036 379.185 856.941 379.022 853.014 378.532C850.408 373.927 845.769 369.246 838.395 368.696C834.503 368.407 829.64 369.756 824.335 372.262C803.271 365.143 785.302 350.816 773.602 331.987C765.894 320.351 764.088 306.093 768.35 292.819C769.977 288.276 769.675 283.09 769.191 274.876L769.176 274.628C768.849 268.892 768.514 262.009 768.514 252.504C768.514 251.674 768.539 250.845 768.582 250.018C769.308 244.074 771.605 233.45 776.881 229.888C778.85 228.577 780.983 228.413 783.607 229.232C790.471 231.305 796.25 240.051 801.843 248.523L802.31 249.226L802.823 250.006C809.377 259.918 816.007 269.938 825.435 272.333C831.659 273.928 843.169 272.574 856.631 270.99L857.749 270.858L858.255 270.798C882.772 267.858 913.121 264.219 926.64 275.775C941.074 288.066 943.702 303.635 934.352 321.99C930.578 329.529 918.768 348.539 918.605 348.703L917.786 350.178L918.932 351.325C918.932 351.325 922.87 355.258 921.887 359.847C921.065 363.452 917.13 368.696 902.529 373.449ZM860.434 383.211C858.586 383.15 856.76 383.044 854.937 382.881C855.157 383.551 855.328 384.183 855.453 384.757L851.515 385.576C851.512 385.563 851.504 385.542 851.497 385.513L851.472 385.417C851.063 383.928 848.193 373.416 838.231 372.794C832.666 372.366 822.095 377.207 810.997 385.383L811.004 385.413L810.944 385.422C808.067 387.543 805.155 389.888 802.288 392.423L802.31 392.46L802.164 392.535C794.961 398.92 788.032 406.502 782.624 414.747C779.377 419.767 776.92 424.16 775.275 428.106L775.407 428.35C775.382 428.365 775.279 428.42 775.108 428.514C769.849 441.465 773.477 449.588 786.726 459.325C798.7 468.173 830.519 475.712 860.865 472.597L897.281 468.99L897.772 469.154C900.4 470.139 902.202 472.433 902.693 475.057V475.385C902.693 476.039 902.529 476.857 902.202 478.336C902.145 478.649 902.08 478.987 902.013 479.35V479.353C901.29 483.166 900.104 489.421 902.202 492.263C902.693 493.084 903.515 493.575 904.662 493.738C907.286 494.066 909.255 493.738 910.401 492.757C912.538 490.79 912.865 486.694 912.865 483.578V482.433L914.012 481.775C921.887 477.184 938.454 467.518 939.109 439.986C939.437 426.711 934.844 415.239 926.313 407.537C918.277 400.326 907.617 397.376 896.298 399.015C889.352 400.026 881.138 402.057 872.433 404.208L872.426 404.209C871.261 404.498 870.086 404.788 868.904 405.078C848.236 410.323 824.944 416.223 809.523 412.781L810.506 408.848C815.662 410.018 821.885 410.039 828.678 409.344C829.917 399.17 839.816 386.9 841.457 384.863C841.571 384.724 841.646 384.633 841.674 384.593L844.793 387.215C844.64 387.366 834.66 399.272 832.912 408.832C840.684 407.755 849.044 405.906 857.308 403.876L854.609 390.385L858.629 389.581L861.292 402.882C863.578 402.306 865.846 401.723 868.082 401.145C869.307 400.83 870.521 400.517 871.728 400.209L860.434 383.211ZM799.793 389.216C800.612 388.495 801.43 387.782 802.256 387.082C796.086 388.453 790.019 390.228 784.098 392.46C773.274 396.393 765.402 400.162 761.464 402.456C765.894 401.801 774.424 399.506 785.248 395.573C788.321 394.498 796.008 391.121 799.793 389.216ZM809.317 381.482C800.312 382.972 791.322 385.369 782.788 388.526C775.243 391.148 768.35 394.098 763.27 396.721C756.38 400.326 754.247 402.456 755.066 404.751C755.394 406.062 756.708 406.717 759.004 406.717C760.809 406.717 763.102 406.39 766.385 405.57C771.797 404.259 779.014 402.128 786.562 399.343C787.694 398.911 789.375 398.232 791.262 397.444C786.519 402.415 782.339 407.558 779.181 412.453C776.077 417.219 773.659 421.537 771.939 425.511C770.75 426.128 768.892 427.095 766.492 428.345L766.399 428.394C746.479 438.769 689.789 468.304 667.804 478.009C640.573 489.969 581.196 510.453 569.386 504.72C568.378 504.29 568.125 503.731 567.969 503.376C567.947 503.326 567.926 503.283 567.908 503.244C567.581 501.932 568.236 493.902 613.51 465.552C640.082 448.837 672.56 431.3 692.901 421.139C725.191 405.142 789.72 385.674 813.109 378.791C811.848 379.649 810.581 380.547 809.317 381.482ZM870.264 475.829L870.702 475.786L870.709 475.875C870.539 475.875 870.385 475.858 870.264 475.829ZM864.233 476.416L870.09 475.847C871.201 476.704 875.374 481.185 878.418 490.463C881.861 500.623 881.042 515.702 879.568 518.65C878.785 518.337 877.118 516.989 875.687 515.172L864.233 476.416ZM851.18 477.373C835.233 477.885 819.695 475.826 807.099 472.415L807.081 472.436C801.623 478.969 775.325 510.428 759.004 520.453C754.084 523.401 746.536 527.661 738.663 532.085C720.455 542.413 693.065 557.982 690.605 562.242C687.486 568.142 684.203 581.741 688.636 595.511C692.242 607.307 700.446 616.49 713.075 623.044C717.504 625.337 723.574 627.14 730.296 628.286C739.977 629.598 758.021 622.386 771.142 617.144C775.517 615.416 778.989 614.05 781.773 613.047C782.795 609.868 782.678 593.481 772.124 584.039C757.854 571.258 723.41 575.518 720.619 576.663C720.619 576.663 720.783 576.499 721.114 576.336L718.162 573.384C720.573 570.973 757.288 566.506 774.001 580.141C780.061 576.581 804.781 561.016 822.32 534.874C834.236 516.858 843.906 497.643 851.18 477.373ZM783.771 616.817L783.746 616.738C780.452 617.912 776.465 619.509 772.947 620.91V620.913C765.239 624.189 756.38 627.795 748.017 630.089C759.659 630.419 770.978 628.94 777.54 625.01C789.019 618.453 790.009 615.504 790.009 615.01C789.022 615.01 786.968 615.611 784.422 616.5C784.226 616.628 784.013 616.735 783.771 616.817ZM962.238 264.631L958.14 263.976C960.269 250.373 960.924 226.446 957.477 222.677C956.003 221.038 946.326 224.48 937.144 229.888L935.007 226.446C953.216 215.63 958.795 218.252 960.433 219.891C966.667 226.282 963.057 258.895 962.238 264.631ZM812.315 347.392C815.43 349.195 819.037 350.342 821.828 350.342C823.961 350.342 825.762 349.686 826.749 348.375C828.881 344.606 824.452 339.362 818.873 336.248C816.089 334.609 813.297 333.626 810.841 333.298C806.739 332.642 805.094 334.445 804.439 335.428C803.784 336.412 803.293 338.706 805.753 341.984C807.23 343.95 809.523 345.753 812.315 347.392ZM814.28 343.95C809.523 341.164 807.722 338.05 807.885 337.395C808.541 336.903 811.987 336.903 816.744 339.853C821.664 342.639 823.306 345.589 823.138 346.245C822.647 346.736 819.204 346.736 814.28 343.95ZM591.364 488.166C592.023 489.314 593.333 489.969 595.466 489.969C597.763 489.969 601.045 489.151 605.311 487.675C612.033 485.218 620.232 481.281 628.763 476.366C637.294 471.451 644.839 466.37 650.251 461.782C656.812 456.209 659.109 452.607 657.631 449.982C656.157 447.358 651.892 447.521 643.692 450.473C636.967 452.934 628.763 456.867 620.232 461.782C611.705 466.7 604.157 471.779 598.745 476.366C592.187 481.942 589.89 485.545 591.364 488.166ZM626.634 472.76C609.245 482.76 598.09 486.039 595.138 485.872C596.288 483.251 604.816 475.057 622.205 465.061C639.591 455.061 650.745 451.785 653.697 451.949C652.547 454.733 644.02 462.767 626.634 472.76ZM680.105 439.328C677.972 439.328 676.826 438.673 676.334 437.528C675.184 435.067 677.481 432.446 684.374 427.858C689.622 424.416 697.003 420.484 704.871 416.714C712.911 412.945 720.619 409.995 726.529 408.192C734.398 405.898 737.844 405.898 738.991 408.356C740.141 410.815 737.845 413.437 730.955 418.025C725.703 421.467 718.326 425.4 710.45 429.169C702.415 432.937 694.703 435.889 688.799 437.692C684.865 438.837 682.074 439.328 680.105 439.328ZM734.07 410.815C730.133 411.306 720.619 414.092 706.68 420.647C692.57 427.203 684.374 432.61 681.419 435.231C685.356 434.74 694.87 431.956 708.809 425.4C722.755 418.845 731.119 413.437 734.07 410.815Z"
        fill="#1F6FEB" />
      <mask id="mask0" mask-type="alpha" maskUnits="userSpaceOnUse" x="1048" y="165" width="206" height="173">
        <path fill-rule="evenodd" clip-rule="evenodd"
          d="M1253.75 165.08H1048.41V335.005C1065.6 314.476 1089.3 292.533 1089.3 298.877C1089.3 305.649 1101.44 308.717 1112.73 295.615C1115.83 298.017 1120.8 302.856 1120.01 309.946C1118.61 322.549 1113.57 331.157 1107.35 337.842H1253.75V165.08Z"
          fill="#C4C4C4" />
      </mask>
      <g mask="url(#mask0)">
        <path
          d="M939.6 493.902C938.945 491.117 1069.02 341.655 1080.17 331.494C1091.33 321.334 1191.22 203.666 1198.44 199.569C1202.87 189.736 1188.27 181.378 1181.71 185.967C1175.64 197.93 1070.33 322.153 1060.82 332.314C1051.31 342.474 975.034 424.908 941.733 451.291C934.516 471.288 927.79 474.73 922.706 480.463C921.884 483.578 922.87 487.839 928.94 491.772C935.007 495.705 939.6 493.902 939.6 493.902Z"
          fill="#6E7681" />
        <path
          d="M1163.66 227.754C1154.15 237.096 1118.39 279.213 1109.04 290.194C1089.03 313.957 1006.19 407.698 985.035 431.297C975.198 442.44 937.631 480.79 927.79 490.95C928.118 491.278 928.613 491.605 929.104 491.768C935.171 495.869 939.764 493.899 939.764 493.899C939.109 491.114 1069.18 341.653 1080.34 331.492C1091.49 321.331 1191.39 203.663 1198.6 199.566C1199.75 196.944 1199.59 193.994 1198.11 191.536C1187.61 204.483 1175.48 216.119 1163.66 227.754Z"
          fill="#484F58" />
      </g>
    </g>
  </g>
  <defs>
    <clipPath id="clip0">
      <rect width="1280" height="720" fill="white" />
    </clipPath>
    <clipPath id="clip1">
      <rect width="1296" height="569" fill="white" transform="translate(-8 76)" />
    </clipPath>
  </defs>
</svg>
