<svg width="1440" height="900" viewBox="0 0 1440 900" fill="none" xmlns="http://www.w3.org/2000/svg">
<g clip-path="url(#clip0)">
<rect width="1440" height="900" fill="#22282D"/>
<path d="M1262.84 848.422C1262.84 848.422 1271.44 760.637 1268.15 748.199C1266.13 755.331 1230.81 812.394 1230.81 812.394V756.796C1230.81 756.796 1222.94 782.398 1220.38 790.264C1217.82 778.374 1199.34 743.08 1202.08 747.104C1204.83 751.124 1205.37 788.252 1202.08 788.252C1199.52 787.518 1189.64 753.502 1179.76 742.345C1183.59 746.187 1186.34 775.084 1189.64 789.534C1188.35 784.228 1161.82 765.94 1149.01 763.376C1150.29 771.79 1169.32 787.518 1173.17 798.678C1177.01 809.834 1170.6 822.272 1170.6 822.272L1194.76 840.377L1262.84 848.422Z" fill="#161B22"/>
<path d="M700.832 127.073C700.15 127.073 699.475 127.073 698.801 127.126C695.625 115.879 688.804 106.005 679.408 99.0557C670.011 92.1065 658.573 88.4753 646.889 88.7326C635.205 88.9899 623.937 93.121 614.856 100.477C605.775 107.833 599.394 117.998 596.717 129.374C588.233 132.441 581.102 138.4 576.577 146.204C572.052 154.009 570.422 163.158 571.974 172.044C573.527 180.931 578.162 188.986 585.064 194.794C591.967 200.602 600.696 203.791 609.717 203.801H700.832C711.006 203.801 720.764 199.759 727.959 192.565C735.154 185.37 739.196 175.612 739.196 165.437C739.196 155.262 735.154 145.504 727.959 138.31C720.764 131.115 711.006 127.073 700.832 127.073V127.073Z" fill="#757889"/>
<path d="M916.629 208.597C916.629 273.478 873.47 328.439 814.343 346.325C787.223 354.514 758.29 354.514 731.171 346.325C672.059 328.439 628.899 273.486 628.899 208.597C628.899 143.708 672.059 88.7542 731.186 70.8685C758.305 62.6797 787.238 62.6797 814.358 70.8685C873.47 88.7542 916.629 143.715 916.629 208.597Z" fill="#D4D8DD"/>
<g opacity="0.2">
<path opacity="0.2" d="M662.468 208.597C662.465 181.884 668.671 155.537 680.597 131.635C692.523 107.732 709.841 86.9295 731.186 70.8685C672.059 88.7542 628.899 143.715 628.899 208.597C628.899 273.478 672.059 328.439 731.186 346.325C709.841 330.264 692.523 309.461 680.597 285.559C668.671 261.656 662.465 235.309 662.468 208.597V208.597Z" fill="#323232"/>
<path opacity="0.22" d="M814.343 70.8685C835.692 86.9266 853.017 107.728 864.947 131.631C876.878 155.533 883.088 181.882 883.088 208.597C883.088 235.311 876.878 261.66 864.947 285.563C853.017 309.465 835.692 330.267 814.343 346.325C873.47 328.439 916.629 273.486 916.629 208.597C916.629 143.708 873.47 88.7542 814.343 70.8685Z" fill="black"/>
</g>
<path d="M916.629 222.983C915.947 222.983 915.273 222.983 914.598 223.036C911.423 211.788 904.601 201.915 895.205 194.966C885.809 188.016 874.37 184.385 862.686 184.643C851.002 184.9 839.735 189.031 830.653 196.387C821.572 203.743 815.192 213.907 812.514 225.283C804.031 228.351 796.9 234.31 792.374 242.114C787.849 249.918 786.22 259.068 787.772 267.954C789.324 276.841 793.959 284.896 800.862 290.704C807.764 296.512 816.493 299.701 825.515 299.711H916.629C926.804 299.711 936.562 295.669 943.756 288.475C950.951 281.28 954.993 271.522 954.993 261.347C954.993 251.172 950.951 241.414 943.756 234.22C936.562 227.025 926.804 222.983 916.629 222.983Z" fill="#757889"/>
<path d="M720.013 208.597C733.256 208.597 743.991 197.862 743.991 184.619C743.991 171.377 733.256 160.642 720.013 160.642C706.771 160.642 696.036 171.377 696.036 184.619C696.036 197.862 706.771 208.597 720.013 208.597Z" fill="#B6BBBF"/>
<path d="M734.4 270.938C742.345 270.938 748.786 264.497 748.786 256.552C748.786 248.606 742.345 242.165 734.4 242.165C726.454 242.165 720.013 248.606 720.013 256.552C720.013 264.497 726.454 270.938 734.4 270.938Z" fill="#B6BBBF"/>
<path d="M791.945 165.437C799.891 165.437 806.332 158.996 806.332 151.051C806.332 143.105 799.891 136.664 791.945 136.664C784 136.664 777.559 143.105 777.559 151.051C777.559 158.996 784 165.437 791.945 165.437Z" fill="#B6BBBF"/>
<path d="M931.674 91.5813C934.333 91.5813 936.488 89.2602 936.488 86.3969C936.488 83.5336 934.333 81.2124 931.674 81.2124C929.015 81.2124 926.86 83.5336 926.86 86.3969C926.86 89.2602 929.015 91.5813 931.674 91.5813Z" fill="#D4D8DD"/>
<path d="M916.5 36C918.985 36 921 33.9853 921 31.5C921 29.0147 918.985 27 916.5 27C914.015 27 912 29.0147 912 31.5C912 33.9853 914.015 36 916.5 36Z" fill="#D4D8DD"/>
<path d="M901.678 86.3969C904.541 86.3969 906.863 84.2415 906.863 81.5827C906.863 78.9239 904.541 76.7686 901.678 76.7686C898.815 76.7686 896.494 78.9239 896.494 81.5827C896.494 84.2415 898.815 86.3969 901.678 86.3969Z" fill="#D4D8DD"/>
<path d="M518.768 122.688C521.222 122.688 523.211 120.699 523.211 118.244C523.211 115.79 521.222 113.801 518.768 113.801C516.313 113.801 514.324 115.79 514.324 118.244C514.324 120.699 516.313 122.688 518.768 122.688Z" fill="#D4D8DD"/>
<path d="M498.77 111.579C502.452 111.579 505.436 108.594 505.436 104.913C505.436 101.231 502.452 98.2471 498.77 98.2471C495.089 98.2471 492.104 101.231 492.104 104.913C492.104 108.594 495.089 111.579 498.77 111.579Z" fill="#D4D8DD"/>
<path d="M485.439 131.576C487.893 131.576 489.883 129.586 489.883 127.132C489.883 124.678 487.893 122.688 485.439 122.688C482.985 122.688 480.995 124.678 480.995 127.132C480.995 129.586 482.985 131.576 485.439 131.576Z" fill="#D4D8DD"/>
<g opacity="0.08">
<path opacity="0.08" d="M916.629 222.983C915.947 222.983 915.273 222.983 914.598 223.036C911.036 210.371 902.864 199.497 891.689 192.554C880.514 185.611 867.145 183.101 854.212 185.518C863.888 187.331 872.868 191.801 880.147 198.429C887.425 205.056 892.715 213.579 895.424 223.043C896.098 223.043 896.772 222.991 897.454 222.991C907.629 222.991 917.387 227.033 924.582 234.227C931.776 241.422 935.818 251.18 935.818 261.355C935.818 271.529 931.776 281.287 924.582 288.482C917.387 295.677 907.629 299.719 897.454 299.719H916.636C926.811 299.719 936.569 295.677 943.764 288.482C950.958 281.287 955 271.529 955 261.355C955 251.18 950.958 241.422 943.764 234.227C936.569 227.033 926.811 222.991 916.636 222.991L916.629 222.983Z" fill="black"/>
</g>
<path d="M0 816.26L49.0311 691.536L53.4886 729.588L89.5191 665.368L97.8764 689.869L114.777 646.808L133.721 706.756L163.437 616.37L185.724 691.166L216.74 646.808C216.74 646.808 183.31 659.058 183.31 655.717C183.31 652.376 228.441 592.984 228.441 592.984C228.441 592.984 186.838 608.575 186.838 605.234C186.838 602.079 222.126 569.414 234.198 548.812C246.27 528.21 267.814 457.126 267.814 457.126C267.814 457.126 302.359 544.729 320.746 554.194C326.689 540.089 345.632 500.185 345.632 500.185L308.117 516.703C308.117 516.703 364.576 397.734 371.634 371.007C378.506 344.096 376.834 353.376 389.278 376.761C397.821 396.62 408.036 461.766 439.424 498.886C469.139 526.726 418.066 506.867 418.066 506.867L464.124 595.026L504.615 516.703L528.573 577.58L564.415 498.886L523.929 527.282C523.929 527.282 559.961 474.201 567.757 432.441C575.373 390.496 585.032 323.865 585.032 323.865L635.919 420.934C635.919 420.934 684.581 286.189 686.436 268C692.193 332.403 769.268 485.894 769.268 485.894C769.268 485.894 799.172 422.233 801.954 398.662C811.242 422.047 932.521 811.25 932.521 811.25C932.521 811.25 590.417 833.522 457.069 833.892C323.717 834.263 76.8897 825.354 44.3878 822.571C24.3299 820.9 0 816.26 0 816.26Z" fill="#161B22"/>
<g opacity="0.5">
<path opacity="0.5" d="M1295.61 752.416C1294.13 747.776 1293.57 742.766 1294.31 737.756C1294.87 735.525 1296.35 732.927 1298.59 732.927C1299.7 733.116 1300.63 733.487 1301.55 734.228C1303.42 735.895 1305.27 737.571 1306.75 739.608C1318.83 753.898 1327.74 770.604 1333.5 788.422C1332.76 779.513 1337.59 770.979 1344.27 765.034C1350.96 759.098 1359.5 755.94 1368.23 753.713C1371.39 752.786 1375.29 752.416 1377.7 754.643C1379.18 756.315 1379.74 758.727 1379 760.954C1378.26 762.996 1376.96 764.849 1375.29 766.335C1371.39 769.674 1366.93 772.461 1362.47 774.684C1352.82 780.073 1343.71 786.38 1335.17 793.432C1334.43 794.177 1333.5 794.733 1332.57 794.918C1332.01 794.918 1331.27 794.918 1330.71 794.733C1312.14 790.464 1300.26 769.118 1295.61 752.416Z" fill="#30363D"/>
</g>
<path d="M1241.57 859.137C1241.01 857.284 1255.31 810.883 1255.31 810.883C1255.31 810.883 1297.84 784.716 1305.46 780.258C1313.07 775.804 1323.66 776.549 1323.66 776.549L1346.87 767.825C1346.87 767.825 1410.76 784.716 1412.62 785.272C1414.48 785.828 1425.8 806.614 1430.82 813.481C1435.83 820.348 1438.25 824.802 1438.99 835.938L1439.55 847.26L1405.75 883.451H1366.93C1366.93 883.451 1339.44 894.027 1333.13 892.174C1326.81 890.322 1304.34 884.752 1296.17 877.699C1288 870.647 1241.57 859.137 1241.57 859.137Z" fill="#484F58"/>
<path d="M1324.03 784.708C1323.84 783.408 1320.87 751.296 1351.33 716.406L1354.11 718.823C1338.7 736.266 1332.39 753.157 1329.78 764.289C1327 776.355 1327.74 784.149 1327.74 784.334L1324.03 784.708Z" fill="#484F58"/>
<path d="M1354.67 721.412C1351.33 721.412 1348.54 718.633 1348.54 715.29C1348.54 711.952 1351.33 709.169 1354.67 709.169C1358.02 709.169 1360.8 711.952 1360.8 715.29C1360.8 718.633 1358.02 721.412 1354.67 721.412ZM1354.67 712.878C1353.37 712.878 1352.26 713.994 1352.26 715.29C1352.26 716.587 1353.37 717.699 1354.67 717.699C1355.97 717.699 1357.09 716.587 1357.09 715.29C1357.09 713.994 1355.97 712.878 1354.67 712.878Z" fill="#484F58"/>
<path d="M1371.76 731.997C1368.6 731.997 1366 729.399 1366 726.245C1366 723.092 1368.6 720.494 1371.76 720.494C1374.92 720.494 1377.52 723.092 1377.52 726.245C1377.52 729.399 1374.92 731.997 1371.76 731.997ZM1371.76 724.203C1370.64 724.203 1369.71 725.13 1369.71 726.245C1369.71 727.357 1370.64 728.287 1371.76 728.287C1372.87 728.287 1373.8 727.357 1373.8 726.245C1373.8 725.13 1372.87 724.203 1371.76 724.203Z" fill="#484F58"/>
<path d="M1346.69 742.025C1341.48 742.025 1337.4 739.798 1337.21 739.612L1339.07 736.455C1339.44 736.64 1346.69 740.724 1353.19 736.455C1358.2 733.301 1363.03 729.588 1367.49 725.879L1369.9 728.662C1365.26 732.56 1360.24 736.27 1355.23 739.612C1352.44 741.465 1349.47 742.025 1346.69 742.025Z" fill="#484F58"/>
<path d="M1312.7 842.991C1322.36 833.897 1333.13 825.729 1344.45 818.677C1352.45 820.348 1359.87 819.051 1366 819.977C1379 808.467 1394.23 795.108 1407.6 784.153C1392.37 780.073 1346.69 768.006 1346.69 768.006L1323.47 776.734C1323.47 776.734 1312.88 776.174 1305.27 780.443C1299.33 783.967 1270.91 801.415 1259.76 808.282C1267.01 818.866 1301.55 834.638 1312.7 842.991Z" fill="#6E7681"/>
<path d="M1260.32 808.648L1259.76 807.907C1270.35 801.414 1299.14 783.593 1305.27 780.069C1312.51 775.989 1322.36 776.174 1323.66 776.359L1346.87 767.636H1347.06C1347.43 767.821 1392.74 779.698 1407.97 783.778L1407.79 784.708C1393.12 780.814 1350.03 769.303 1347.06 768.562L1324.03 777.286H1323.84C1323.66 777.286 1313.26 776.73 1306.01 780.999C1299.7 784.338 1270.91 802.156 1260.32 808.648Z" fill="#6E7681"/>
<path d="M227.884 904.051C317.327 904.051 389.836 896.903 389.836 888.086C389.836 879.274 317.327 872.125 227.884 872.125C138.441 872.125 65.9326 879.274 65.9326 888.086C65.9326 896.903 138.441 904.051 227.884 904.051Z" fill="#161B22" fill-opacity="0.5"/>
<path d="M315.917 837.046C315.917 837.046 319.074 861.175 325.389 867.671C331.703 874.163 357.519 892.17 358.819 888.827C346.19 873.052 332.818 834.078 332.818 834.078L315.917 837.046Z" fill="#30363D"/>
<path d="M233.085 838.717C232.714 838.903 232.528 839.088 232.343 839.273C231.971 839.644 232.343 840.389 232.528 840.759C235.5 845.769 237.729 851.335 239.4 856.909C240.514 860.989 242.743 866.559 246.457 864.699C252.958 861.179 247.572 852.64 246.457 845.399C247.201 849.853 261.687 844.658 266.33 837.976C272.273 829.438 257.972 828.141 252.772 829.438C246.086 831.105 239.4 835.749 233.085 838.717Z" fill="#30363D"/>
<path d="M288.244 786.565C279.514 785.639 270.6 785.824 262.613 789.348C254.999 792.691 248.87 798.813 243.298 804.939C241.627 806.981 239.77 808.652 237.541 810.138C235.312 811.25 232.898 811.805 230.483 811.805C218.782 812.176 207.825 805.684 200.025 797.145C192.224 788.607 186.653 778.212 180.709 768.192C171.237 752.231 159.722 736.266 143.379 727.542C120.72 715.294 91.0043 719.008 70.203 734.598C49.4022 749.999 37.3302 775.618 35.4729 801.229C35.1015 806.981 36.2158 814.222 41.7878 815.519L50.331 798.998C54.6026 790.834 59.06 782.481 66.3031 776.73C73.5462 770.975 84.3184 768.933 91.9332 774.128C97.8762 778.212 100.291 785.824 101.034 793.062C101.776 800.299 101.219 807.536 102.891 814.593C106.977 831.665 123.692 843.546 140.778 846.885C153.222 849.298 166.223 848.186 178.109 843.546C197.796 835.749 214.882 818.676 235.869 819.973C238.655 827.396 245.898 832.41 253.513 834.637C261.128 836.861 269.299 836.305 277.1 835.934L266.7 848.371C272.086 859.318 279.514 869.157 288.244 877.51C292.515 866.745 288.986 855.794 282.3 846.325C283.972 842.99 286.758 840.203 290.101 838.721C297.901 842.801 318.331 841.686 327.06 840.574C326.688 846.885 327.988 861.364 332.074 867.486C336.16 873.612 349.161 886.79 356.59 890.688C361.233 893.282 375.534 896.625 377.763 892.356C360.119 884.933 342.661 866.93 342.846 847.815C342.846 838.532 351.018 832.41 350.461 824.613C350.09 817.746 338.946 809.768 334.117 805.869C321.117 795.289 305.144 788.607 288.244 786.565Z" fill="#484F58"/>
<path d="M190.552 818.121C183.681 818.121 176.437 819.603 171.423 814.037C169.751 811.805 168.265 809.397 166.965 806.981C162.879 800.673 157.865 799.928 150.622 800.488C141.893 801.044 138.735 797.701 135.207 789.723C125.177 767.451 99.919 750.003 75.5891 762.996C57.0168 773.017 45.6875 794.918 40.4871 814.593C40.4871 814.778 40.3015 814.963 40.3015 815.148C40.6733 815.334 41.0442 815.519 41.6017 815.704L50.3308 799.187C54.6024 791.02 59.0594 782.667 66.3025 776.915C73.5464 771.164 84.3182 769.118 91.9326 774.313C97.876 778.397 100.29 786.009 101.033 793.247C101.776 800.488 101.219 807.722 102.891 814.778C106.977 831.85 123.692 843.732 140.778 847.074C153.222 849.483 166.222 848.371 178.109 843.731C192.038 838.161 204.853 827.956 218.597 822.946C210.053 819.232 200.767 818.121 190.552 818.121Z" fill="#30363D"/>
<g opacity="0.6">
<path opacity="0.8" d="M284.343 810.694C284.714 810.694 301.058 821.645 300.872 826.84C300.686 832.036 286.014 839.833 286.014 839.833C286.014 839.833 293.258 830.739 291.586 825.173C289.914 819.603 284.343 810.694 284.343 810.694Z" fill="#8B949E"/>
</g>
<path d="M345.631 815.519C343.96 821.089 340.803 826.284 339.502 832.225C337.646 839.462 339.131 847.26 343.589 853.196C343.217 851.529 343.217 849.668 343.217 848.001C343.217 838.721 351.389 832.596 350.832 824.802C350.46 821.645 348.417 818.491 345.631 815.519Z" fill="#30363D"/>
<path d="M356.777 804.198C361.049 802.526 364.577 806.981 361.606 817.186L366.992 817.372C366.063 814.593 365.691 811.62 366.063 808.652C366.249 806.054 368.477 804.198 371.078 804.383H371.263C374.235 804.568 375.163 806.981 375.35 809.949C375.35 812.732 374.792 815.519 373.492 818.117C379.992 822.76 383.521 830.735 382.593 838.717C382.036 841.5 381.478 844.287 381.293 847.07C381.107 850.039 382.593 852.64 385.007 854.123C386.493 854.678 388.164 854.864 389.65 855.234C391.136 855.605 392.807 856.91 392.622 858.577C392.436 859.874 391.136 860.615 390.021 861.364C380.921 865.818 370.335 865.818 361.42 861.364C353.619 857.465 347.305 850.039 346.191 841.5C345.448 835.749 347.119 830.179 350.834 825.725C352.134 824.242 356.22 822.197 356.777 820.344C354.363 817.372 351.02 806.425 356.777 804.198Z" fill="#484F58"/>
<path d="M389.834 859.874C391.167 859.874 392.248 858.79 392.248 857.461C392.248 856.128 391.167 855.049 389.834 855.049C388.5 855.049 387.42 856.128 387.42 857.461C387.42 858.79 388.5 859.874 389.834 859.874Z" fill="#30363D"/>
<g opacity="0.6">
<path opacity="0.8" d="M156.752 757.607C166.595 768.743 174.21 781.551 183.496 793.058C192.782 804.564 205.597 812.913 220.084 816.441C221.198 816.256 222.126 816.071 223.241 815.885C213.026 814.959 203.554 809.019 196.497 801.411C188.51 792.872 183.125 782.477 177.181 772.457C167.709 756.496 156.194 740.531 139.851 731.807C128.521 725.871 115.707 723.458 102.891 724.94C123.693 728.839 143.194 742.206 156.752 757.607Z" fill="#8B949E"/>
</g>
<g opacity="0.6">
<path opacity="0.8" d="M318.33 803.823C327.431 809.023 334.488 816.441 340.803 824.609C341.175 822.382 341.918 820.155 342.66 818.117C338.017 812.732 332.446 807.903 326.502 804.008C312.759 795.099 296.972 792.502 281.186 789.719L286.571 792.316C297.158 796.215 308.487 798.068 318.33 803.823Z" fill="#8B949E"/>
</g>
<g opacity="0.6">
<path opacity="0.8" d="M355.106 811.064C360.492 810.694 357.52 820.159 360.492 821.27C362.906 822.201 365.878 820.344 368.664 821.455C371.636 822.946 373.864 825.169 375.35 828.141C377.393 832.225 377.393 835.934 377.021 840.389C376.836 846.14 377.207 852.085 383.893 853.752C381.85 852.085 380.736 849.668 380.921 847.074C381.108 844.287 381.665 841.5 382.222 838.721C383.15 830.739 379.622 822.76 373.121 818.121C374.421 815.519 374.978 812.732 374.978 809.953C374.792 806.981 373.864 804.568 370.892 804.383C368.292 804.012 366.063 805.869 365.692 808.467V808.652C365.321 811.62 365.692 814.593 366.621 817.376L361.235 817.186C364.206 806.795 360.678 802.341 356.406 804.198C353.62 805.313 353.063 808.277 353.249 811.62C353.992 811.435 354.549 811.25 355.106 811.064Z" fill="#8B949E"/>
</g>
</g>
<defs>
<clipPath id="clip0">
<rect width="1440" height="900" fill="white"/>
</clipPath>
</defs>
</svg>
