<svg width="1440" height="900" viewBox="0 0 1440 900" fill="none" xmlns="http://www.w3.org/2000/svg">
<g clip-path="url(#clip0)">
<rect width="1440" height="900" fill="#22282D"/>
<rect width="1446" height="635" transform="translate(-6 265)" fill="#22282D"/>
<path d="M1262.84 848.422C1262.84 848.422 1271.44 760.637 1268.15 748.199C1266.13 755.331 1230.81 812.394 1230.81 812.394V756.796C1230.81 756.796 1222.94 782.398 1220.38 790.264C1217.82 778.374 1199.34 743.08 1202.08 747.104C1204.83 751.124 1205.37 788.252 1202.08 788.252C1199.52 787.518 1189.64 753.502 1179.76 742.345C1183.59 746.187 1186.34 775.084 1189.64 789.534C1188.35 784.228 1161.82 765.94 1149.01 763.376C1150.29 771.79 1169.32 787.518 1173.17 798.678C1177.01 809.834 1170.6 822.272 1170.6 822.272L1194.76 840.377L1262.84 848.422Z" fill="#161B22"/>
<path d="M-6 805.262L42.3159 682.358L46.7083 719.854L82.2132 656.572L90.4486 680.715L107.103 638.282L125.771 697.356L155.053 608.288L177.015 681.993L207.578 638.282C207.578 638.282 174.636 650.353 174.636 647.061C174.636 643.769 219.108 585.244 219.108 585.244C219.108 585.244 178.113 600.607 178.113 597.315C178.113 594.206 212.885 562.016 224.782 541.716C236.678 521.414 257.907 451.367 257.907 451.367C257.907 451.367 291.948 537.692 310.067 547.019C315.923 533.12 334.59 493.798 334.59 493.798L297.622 510.075C297.622 510.075 353.258 392.841 360.213 366.505C366.984 339.986 365.337 349.13 377.599 372.175C386.018 391.744 396.083 455.939 427.013 492.518C456.295 519.951 405.967 500.382 405.967 500.382L451.353 587.256L491.253 510.075L514.862 570.064L550.182 492.518L510.286 520.5C510.286 520.5 545.792 468.193 553.475 427.042C560.979 385.709 570.497 320.051 570.497 320.051L620.642 415.703C620.642 415.703 668.595 282.923 670.422 265C676.095 328.463 752.046 479.715 752.046 479.715C752.046 479.715 781.514 416.983 784.255 393.756C793.408 416.8 912.917 800.325 912.917 800.325C912.917 800.325 575.805 822.272 444.401 822.637C312.995 823.002 69.768 814.223 37.7403 811.481C17.975 809.834 -6 805.262 -6 805.262Z" fill="#161B22"/>
<g opacity="0.5">
<path opacity="0.5" d="M1270.71 742.349C1269.25 737.777 1268.7 732.84 1269.43 727.903C1269.98 725.704 1271.44 723.145 1273.64 723.145C1274.74 723.331 1275.65 723.696 1276.57 724.426C1278.4 726.069 1280.23 727.72 1281.69 729.729C1293.59 743.81 1302.38 760.272 1308.05 777.83C1307.32 769.051 1312.07 760.641 1318.66 754.783C1325.25 748.933 1333.67 745.822 1342.27 743.627C1345.38 742.714 1349.23 742.349 1351.6 744.544C1353.06 746.191 1353.62 748.568 1352.88 750.763C1352.15 752.775 1350.87 754.601 1349.23 756.065C1345.38 759.355 1340.99 762.102 1336.6 764.292C1327.08 769.603 1318.11 775.818 1309.69 782.767C1308.96 783.501 1308.05 784.049 1307.13 784.231C1306.58 784.231 1305.85 784.231 1305.3 784.049C1287 779.842 1275.29 758.808 1270.71 742.349Z" fill="#30363D"/>
</g>
<path d="M1217.46 847.513C1216.9 845.688 1230.99 799.964 1230.99 799.964C1230.99 799.964 1272.91 774.179 1280.41 769.785C1287.92 765.396 1298.35 766.13 1298.35 766.13L1321.23 757.534C1321.23 757.534 1384.18 774.179 1386.01 774.726C1387.84 775.274 1399 795.757 1403.95 802.523C1408.89 809.29 1411.27 813.68 1412 824.653L1412.55 835.809L1379.24 871.473H1340.99C1340.99 871.473 1313.9 881.895 1307.68 880.069C1301.45 878.243 1279.32 872.755 1271.26 865.805C1263.21 858.856 1217.46 847.513 1217.46 847.513Z" fill="#484F58"/>
<path d="M1298.71 774.171C1298.53 772.889 1295.6 741.246 1325.62 706.865L1328.36 709.246C1313.17 726.435 1306.95 743.08 1304.39 754.049C1301.64 765.94 1302.38 773.619 1302.38 773.802L1298.71 774.171Z" fill="#484F58"/>
<path d="M1328.91 711.798C1325.62 711.798 1322.87 709.059 1322.87 705.765C1322.87 702.475 1325.62 699.733 1328.91 699.733C1332.21 699.733 1334.95 702.475 1334.95 705.765C1334.95 709.059 1332.21 711.798 1328.91 711.798ZM1328.91 703.388C1327.63 703.388 1326.53 704.487 1326.53 705.765C1326.53 707.043 1327.63 708.139 1328.91 708.139C1330.19 708.139 1331.29 707.043 1331.29 705.765C1331.29 704.487 1330.19 703.388 1328.91 703.388Z" fill="#484F58"/>
<path d="M1345.75 722.228C1342.63 722.228 1340.08 719.668 1340.08 716.56C1340.08 713.453 1342.63 710.893 1345.75 710.893C1348.86 710.893 1351.42 713.453 1351.42 716.56C1351.42 719.668 1348.86 722.228 1345.75 722.228ZM1345.75 714.548C1344.65 714.548 1343.73 715.461 1343.73 716.56C1343.73 717.656 1344.65 718.573 1345.75 718.573C1346.84 718.573 1347.76 717.656 1347.76 716.56C1347.76 715.461 1346.84 714.548 1345.75 714.548Z" fill="#484F58"/>
<path d="M1321.04 732.11C1315.91 732.11 1311.89 729.915 1311.71 729.733L1313.53 726.621C1313.9 726.804 1321.04 730.828 1327.45 726.621C1332.39 723.514 1337.14 719.854 1341.54 716.199L1343.92 718.942C1339.34 722.783 1334.4 726.439 1329.46 729.733C1326.72 731.558 1323.78 732.11 1321.04 732.11Z" fill="#484F58"/>
<path d="M1287.55 831.603C1297.06 822.641 1307.68 814.593 1318.84 807.643C1326.72 809.29 1334.03 808.012 1340.08 808.925C1352.88 797.583 1367.89 784.418 1381.07 773.623C1366.06 769.603 1321.04 757.712 1321.04 757.712L1298.16 766.313C1298.16 766.313 1287.73 765.761 1280.23 769.968C1274.37 773.441 1246.37 790.633 1235.39 797.4C1242.53 807.83 1276.57 823.371 1287.55 831.603Z" fill="#6E7681"/>
<path d="M1235.94 797.761L1235.39 797.031C1245.82 790.633 1274.19 773.071 1280.23 769.599C1287.36 765.578 1297.06 765.761 1298.35 765.944L1321.23 757.347H1321.41C1321.77 757.53 1366.42 769.234 1381.43 773.254L1381.25 774.171C1366.79 770.333 1324.33 758.99 1321.41 758.26L1298.71 766.856H1298.53C1298.35 766.856 1288.1 766.309 1280.96 770.516C1274.74 773.806 1246.37 791.363 1235.94 797.761Z" fill="#6E7681"/>
<path d="M1089.4 707.25C1088.67 704.142 1233.8 537.343 1246.24 526.004C1258.69 514.665 1370.15 383.348 1378.2 378.776C1383.14 367.803 1366.85 358.475 1359.53 363.596C1352.76 376.947 1235.26 515.579 1224.65 526.919C1214.03 538.258 1128.93 630.252 1091.78 659.696C1083.73 682.013 1076.22 685.854 1070.55 692.252C1069.63 695.729 1070.73 700.483 1077.51 704.873C1084.27 709.262 1089.4 707.25 1089.4 707.25Z" fill="#6E7681"/>
<path d="M1339.39 410.231C1328.78 420.656 1288.89 467.659 1278.45 479.913C1256.13 506.432 1163.7 611.046 1140.09 637.383C1129.12 649.818 1087.2 692.617 1076.22 703.956C1076.59 704.321 1077.14 704.686 1077.69 704.869C1084.46 709.444 1089.58 707.246 1089.58 707.246C1088.85 704.138 1233.98 537.341 1246.43 526.001C1258.87 514.662 1370.33 383.345 1378.38 378.773C1379.66 375.847 1379.48 372.555 1377.83 369.812C1366.12 384.26 1352.57 397.246 1339.39 410.231Z" fill="#484F58"/>
<path d="M1073.48 689.136C1072.38 690.053 1071.46 691.152 1070.55 692.248C1069.63 695.724 1070.73 700.479 1077.51 704.868C1084.27 709.258 1089.4 707.246 1089.4 707.246C1089.76 706.146 1090.5 705.234 1091.23 704.321C1087.2 697.368 1080.98 692.065 1073.48 689.136Z" fill="#30363D"/>
<g filter="url(#filter0_d)">
<path d="M804.548 798.662C805.496 790.902 810.638 779.592 810.638 779.592L844.329 759.311L891.42 732.13C891.42 732.13 905.485 718.493 914.151 709.416C924.612 698.46 940.131 680.611 940.131 680.611C940.131 680.611 927.046 677.067 919.835 672.499C910.842 666.802 900.755 653.028 900.755 653.028L902.38 633.962L781.412 695.216L716.867 715.905L681.146 723.208L671 715.266L692.106 694.811L734.727 666.82L791.967 633.15L860.974 602.726L927.951 582.443L958.397 573.519C958.397 573.519 935.127 565.058 923.081 555.264C911.998 546.254 905.563 540.224 899.54 527.274C894.154 515.695 893.044 495.227 893.044 495.227C893.044 495.227 896.222 483.473 897.1 475.755C898.534 463.154 895.885 443.302 895.885 443.302C895.885 443.302 897.182 422.582 901.975 410.444C905.597 401.268 914.556 388.538 914.556 388.538C914.556 388.538 903.377 368.15 906.845 355.274C907.549 352.66 907.86 351.088 909.28 348.784C914.566 340.206 924.374 343.361 934.446 343.104C945.418 342.824 962.051 348.378 962.051 348.378C962.051 348.378 970.703 343.344 976.666 341.076C994.042 334.469 1005.73 335.385 1024.16 337.829C1041.9 340.181 1052.09 343.49 1067.59 352.436C1080.18 359.698 1086.88 364.998 1096.41 375.963C1101.18 381.44 1100.8 387.893 1107.37 390.971C1111.99 393.132 1115.75 390.034 1120.36 392.188C1126.83 395.204 1128.65 400.18 1131.32 406.792C1134.48 414.599 1133.22 419.875 1132.95 428.291C1132.67 437.091 1129.57 441.798 1129.7 450.602C1129.8 457.479 1132.13 468.045 1132.13 468.045C1132.13 468.045 1133.17 487.449 1130.11 499.281C1127.31 510.057 1118.33 525.243 1118.33 525.243C1118.33 525.243 1134.86 519.549 1145.13 515.102C1161.39 508.054 1169.41 501.829 1185.32 494.007C1199.89 486.841 1207.67 481.729 1223.07 476.564C1240.4 470.751 1251.45 461.895 1268.94 467.235C1277.57 469.871 1288.83 478.998 1288.83 478.998L1292.48 490.358C1292.48 490.358 1290.93 511.332 1284.77 522.809C1278.2 535.054 1260.01 548.366 1260.01 548.366L1234.43 558.102C1234.43 558.102 1222.5 559.433 1215.35 557.291C1208.89 555.354 1200.33 548.772 1200.33 548.772L1196.68 537.824C1196.68 537.824 1183.7 544.758 1175.17 548.772C1157.13 557.256 1127.67 567.431 1127.67 567.431L1079.77 580.009L1045.67 584.877L1004.67 582.442L1016.85 603.131L1042.83 597.857C1042.83 597.857 1058.81 597.212 1067.59 601.51C1075.95 605.603 1080.04 609.893 1085.05 617.734C1092.6 629.543 1092.89 639.078 1091.54 653.028C1090.33 665.599 1080.58 683.453 1080.58 683.453L1063.13 693.188L1059.88 709.817L1096.82 781.215L1109 771.075C1109 771.075 1127.19 767.066 1139.04 766.205C1145.52 765.734 1155.68 765.8 1155.68 765.8C1155.68 765.8 1159.65 773.444 1160.15 778.782C1161.23 790.565 1146.75 805.96 1146.75 805.96C1146.75 805.96 1134.06 817.53 1124.83 823.403C1114.3 830.101 1096.01 837.194 1096.01 837.194L1065.56 842.064L1053.79 835.166L1041.61 818.537L1002.24 687.104L993.307 687.509L984.782 712.663L964.892 749.981L940.131 780.405L908.47 803.932L906.44 807.988L914.556 822.593L916.18 838.822L923.486 840.85L922.676 845.715C922.676 845.715 913.888 853.425 907.25 856.669C899.856 860.283 895.105 861.206 886.955 862.348C872.113 864.428 848.794 852.292 848.794 852.292L825.004 839.501C825.004 839.501 813.389 826.073 809.173 815.756C806.557 809.354 803.547 806.863 804.548 798.662Z" fill="#0D1117" fill-opacity="0.25"/>
<path d="M804.548 798.662C805.496 790.902 810.638 779.592 810.638 779.592L844.329 759.311L891.42 732.13C891.42 732.13 905.485 718.493 914.151 709.416C924.612 698.46 940.131 680.611 940.131 680.611C940.131 680.611 927.046 677.067 919.835 672.499C910.842 666.802 900.755 653.028 900.755 653.028L902.38 633.962L781.412 695.216L716.867 715.905L681.146 723.208L671 715.266L692.106 694.811L734.727 666.82L791.967 633.15L860.974 602.726L927.951 582.443L958.397 573.519C958.397 573.519 935.127 565.058 923.081 555.264C911.998 546.254 905.563 540.224 899.54 527.274C894.154 515.695 893.044 495.227 893.044 495.227C893.044 495.227 896.222 483.473 897.1 475.755C898.534 463.154 895.885 443.302 895.885 443.302C895.885 443.302 897.182 422.582 901.975 410.444C905.597 401.268 914.556 388.538 914.556 388.538C914.556 388.538 903.377 368.15 906.845 355.274C907.549 352.66 907.86 351.088 909.28 348.784C914.566 340.206 924.374 343.361 934.446 343.104C945.418 342.824 962.051 348.378 962.051 348.378C962.051 348.378 970.703 343.344 976.666 341.076C994.042 334.469 1005.73 335.385 1024.16 337.829C1041.9 340.181 1052.09 343.49 1067.59 352.436C1080.18 359.698 1086.88 364.998 1096.41 375.963C1101.18 381.44 1100.8 387.893 1107.37 390.971C1111.99 393.132 1115.75 390.034 1120.36 392.188C1126.83 395.204 1128.65 400.18 1131.32 406.792C1134.48 414.599 1133.22 419.875 1132.95 428.291C1132.67 437.091 1129.57 441.798 1129.7 450.602C1129.8 457.479 1132.13 468.045 1132.13 468.045C1132.13 468.045 1133.17 487.449 1130.11 499.281C1127.31 510.057 1118.33 525.243 1118.33 525.243C1118.33 525.243 1134.86 519.549 1145.13 515.102C1161.39 508.054 1169.41 501.829 1185.32 494.007C1199.89 486.841 1207.67 481.729 1223.07 476.564C1240.4 470.751 1251.45 461.895 1268.94 467.235C1277.57 469.871 1288.83 478.998 1288.83 478.998L1292.48 490.358C1292.48 490.358 1290.93 511.332 1284.77 522.809C1278.2 535.054 1260.01 548.366 1260.01 548.366L1234.43 558.102C1234.43 558.102 1222.5 559.433 1215.35 557.291C1208.89 555.354 1200.33 548.772 1200.33 548.772L1196.68 537.824C1196.68 537.824 1183.7 544.758 1175.17 548.772C1157.13 557.256 1127.67 567.431 1127.67 567.431L1079.77 580.009L1045.67 584.877L1004.67 582.442L1016.85 603.131L1042.83 597.857C1042.83 597.857 1058.81 597.212 1067.59 601.51C1075.95 605.603 1080.04 609.893 1085.05 617.734C1092.6 629.543 1092.89 639.078 1091.54 653.028C1090.33 665.599 1080.58 683.453 1080.58 683.453L1063.13 693.188L1059.88 709.817L1096.82 781.215L1109 771.075C1109 771.075 1127.19 767.066 1139.04 766.205C1145.52 765.734 1155.68 765.8 1155.68 765.8C1155.68 765.8 1159.65 773.444 1160.15 778.782C1161.23 790.565 1146.75 805.96 1146.75 805.96C1146.75 805.96 1134.06 817.53 1124.83 823.403C1114.3 830.101 1096.01 837.194 1096.01 837.194L1065.56 842.064L1053.79 835.166L1041.61 818.537L1002.24 687.104L993.307 687.509L984.782 712.663L964.892 749.981L940.131 780.405L908.47 803.932L906.44 807.988L914.556 822.593L916.18 838.822L923.486 840.85L922.676 845.715C922.676 845.715 913.888 853.425 907.25 856.669C899.856 860.283 895.105 861.206 886.955 862.348C872.113 864.428 848.794 852.292 848.794 852.292L825.004 839.501C825.004 839.501 813.389 826.073 809.173 815.756C806.557 809.354 803.547 806.863 804.548 798.662Z" stroke="#1F6FEB" stroke-width="2" stroke-linecap="round" stroke-linejoin="round"/>
</g>
<path d="M963.17 875.874C1064.25 875.874 1146.18 862.694 1146.18 846.43C1146.18 830.166 1064.25 816.986 963.17 816.986C862.093 816.986 780.156 830.166 780.156 846.43C780.156 862.694 862.093 875.874 963.17 875.874Z" fill="#161B22" fill-opacity="0.25"/>
<path d="M1213.82 557.686C1210.2 556.481 1204.28 552.163 1201.76 550.154L1198.75 545.636C1215.83 520.532 1245.16 483.977 1253.01 487.9C1259.04 490.912 1268.08 495.212 1283.16 486.394C1286.61 489.075 1291.57 494.042 1290.69 501.954C1287.68 529.067 1269.59 539.611 1256.02 550.154C1242.46 560.698 1218.34 559.192 1213.82 557.686Z" fill="#0D1117" fill-opacity="0.25"/>
<mask id="mask0" mask-type="alpha" maskUnits="userSpaceOnUse" x="1210" y="340" width="230" height="194">
<path fill-rule="evenodd" clip-rule="evenodd" d="M1439.91 340.286H1210.81V529.922C1229.99 507.012 1256.42 482.524 1256.42 489.603C1256.42 497.161 1269.97 500.585 1282.57 485.963C1286.02 488.644 1291.57 494.044 1290.69 501.956C1289.13 516.021 1283.51 525.627 1276.56 533.088H1439.91V340.286Z" fill="#C4C4C4"/>
</mask>
<g mask="url(#mask0)">
<path d="M1089.4 707.25C1088.67 704.142 1233.8 537.343 1246.24 526.004C1258.69 514.665 1370.15 383.348 1378.2 378.776C1383.14 367.803 1366.85 358.475 1359.53 363.596C1352.76 376.947 1235.26 515.579 1224.65 526.919C1214.03 538.258 1128.93 630.252 1091.78 659.696C1083.73 682.013 1076.22 685.854 1070.55 692.252C1069.63 695.729 1070.73 700.483 1077.51 704.873C1084.27 709.262 1089.4 707.25 1089.4 707.25Z" fill="#6E7681"/>
<path d="M1339.39 410.231C1328.78 420.656 1288.89 467.659 1278.45 479.913C1256.13 506.432 1163.7 611.046 1140.09 637.383C1129.12 649.818 1087.2 692.617 1076.22 703.956C1076.59 704.321 1077.14 704.686 1077.69 704.869C1084.46 709.444 1089.58 707.246 1089.58 707.246C1088.85 704.138 1233.98 537.341 1246.43 526.001C1258.87 514.662 1370.33 383.345 1378.38 378.773C1379.66 375.847 1379.48 372.555 1377.83 369.812C1366.12 384.26 1352.57 397.246 1339.39 410.231Z" fill="#484F58"/>
</g>
<path d="M206.668 885.126C294.806 885.126 366.257 878.082 366.257 869.394C366.257 860.71 294.806 853.666 206.668 853.666C118.529 853.666 47.0791 860.71 47.0791 869.394C47.0791 878.082 118.529 885.126 206.668 885.126Z" fill="#161B22" fill-opacity="0.5"/>
<path d="M293.416 819.098C293.416 819.098 296.528 842.875 302.75 849.276C308.972 855.674 334.411 873.418 335.693 870.124C323.248 854.579 310.071 816.173 310.071 816.173L293.416 819.098Z" fill="#30363D"/>
<path d="M211.794 820.745C211.427 820.928 211.245 821.11 211.062 821.293C210.696 821.658 211.062 822.392 211.245 822.757C214.173 827.694 216.369 833.179 218.016 838.672C219.114 842.692 221.31 848.181 224.971 846.347C231.376 842.879 226.069 834.465 224.971 827.329C225.703 831.719 239.978 826.599 244.554 820.015C250.41 811.601 236.318 810.323 231.193 811.601C224.605 813.244 218.016 817.82 211.794 820.745Z" fill="#30363D"/>
<path d="M266.147 769.354C257.545 768.441 248.76 768.624 240.891 772.096C233.387 775.39 227.348 781.423 221.857 787.459C220.21 789.471 218.38 791.118 216.184 792.583C213.988 793.678 211.609 794.226 209.229 794.226C197.699 794.591 186.901 788.193 179.215 779.78C171.528 771.366 166.038 761.123 160.181 751.248C150.848 735.52 139.5 719.788 123.395 711.192C101.067 699.123 71.7851 702.782 51.2873 718.145C30.7898 733.321 18.8939 758.567 17.0638 783.804C16.6977 789.471 17.7958 796.607 23.2865 797.885L31.7051 781.605C35.9144 773.561 40.3068 765.329 47.4442 759.662C54.5817 753.991 65.1967 751.979 72.7004 757.098C78.5567 761.123 80.9358 768.624 81.668 775.755C82.4001 782.887 81.8507 790.019 83.4981 796.972C87.5247 813.796 103.996 825.504 120.833 828.794C133.095 831.171 145.906 830.076 157.619 825.504C177.019 817.82 193.856 800.997 214.537 802.275C217.282 809.589 224.42 814.53 231.923 816.725C239.427 818.916 247.479 818.368 255.166 818.003L244.917 830.258C250.225 841.045 257.545 850.741 266.147 858.972C270.356 848.364 266.879 837.573 260.29 828.242C261.938 824.956 264.683 822.21 267.977 820.749C275.664 824.769 295.795 823.67 304.397 822.575C304.031 828.794 305.312 843.061 309.338 849.094C313.364 855.13 326.176 868.116 333.496 871.958C338.072 874.514 352.164 877.808 354.36 873.601C336.974 866.286 319.77 848.546 319.953 829.711C319.953 820.563 328.006 814.53 327.457 806.847C327.091 800.08 316.11 792.218 311.352 788.376C298.541 777.95 282.801 771.366 266.147 769.354Z" fill="#484F58"/>
<path d="M169.881 800.449C163.11 800.449 155.972 801.909 151.031 796.425C149.383 794.226 147.919 791.853 146.638 789.471C142.612 783.256 137.67 782.522 130.533 783.074C121.931 783.621 118.82 780.327 115.343 772.465C105.46 750.518 80.5701 733.325 56.5951 746.129C38.2937 756.003 27.1297 777.585 22.0051 796.972C22.0051 797.155 21.8223 797.337 21.8223 797.52C22.1887 797.702 22.5541 797.885 23.1035 798.068L31.7052 781.792C35.9145 773.743 40.3066 765.512 47.444 759.845C54.5822 754.177 65.1968 752.161 72.7001 757.281C78.5568 761.305 80.936 768.806 81.6681 775.938C82.4002 783.074 81.8512 790.202 83.4983 797.155C87.5248 813.978 103.996 825.686 120.833 828.98C133.095 831.354 145.906 830.258 157.619 825.686C171.345 820.197 183.973 810.141 197.517 805.203C189.098 801.544 179.947 800.449 169.881 800.449Z" fill="#30363D"/>
<g opacity="0.6">
<path opacity="0.8" d="M262.304 793.13C262.67 793.13 278.775 803.922 278.592 809.041C278.409 814.161 263.951 821.844 263.951 821.844C263.951 821.844 271.088 812.883 269.441 807.398C267.794 801.909 262.304 793.13 262.304 793.13Z" fill="#8B949E"/>
</g>
<path d="M322.698 797.885C321.051 803.374 317.939 808.494 316.658 814.348C314.828 821.479 316.292 829.163 320.685 835.013C320.318 833.37 320.318 831.536 320.318 829.893C320.318 820.749 328.371 814.713 327.822 807.033C327.456 803.922 325.443 800.814 322.698 797.885Z" fill="#30363D"/>
<path d="M333.681 786.729C337.89 785.082 341.367 789.471 338.439 799.528L343.747 799.711C342.831 796.972 342.465 794.043 342.831 791.118C343.014 788.559 345.211 786.729 347.773 786.911H347.956C350.884 787.094 351.799 789.471 351.982 792.396C351.982 795.139 351.433 797.885 350.152 800.445C356.557 805.021 360.035 812.879 359.12 820.745C358.571 823.488 358.022 826.234 357.839 828.976C357.656 831.901 359.12 834.465 361.499 835.926C362.963 836.473 364.61 836.656 366.075 837.021C367.539 837.386 369.186 838.672 369.003 840.315C368.819 841.593 367.538 842.323 366.44 843.061C357.473 847.451 347.041 847.451 338.256 843.061C330.569 839.22 324.347 831.901 323.249 823.488C322.517 817.82 324.164 812.331 327.824 807.942C329.106 806.481 333.132 804.465 333.681 802.64C331.302 799.711 328.007 788.924 333.681 786.729Z" fill="#484F58"/>
<path d="M366.256 841.593C367.569 841.593 368.635 840.525 368.635 839.216C368.635 837.902 367.569 836.838 366.256 836.838C364.941 836.838 363.876 837.902 363.876 839.216C363.876 840.525 364.941 841.593 366.256 841.593Z" fill="#30363D"/>
<g opacity="0.6">
<path opacity="0.8" d="M136.574 740.818C146.273 751.792 153.777 764.413 162.928 775.751C172.078 787.09 184.707 795.317 198.982 798.794C200.08 798.611 200.994 798.429 202.093 798.246C192.027 797.334 182.693 791.48 175.739 783.983C167.869 775.569 162.562 765.326 156.705 755.451C147.371 739.723 136.025 723.991 119.919 715.395C108.755 709.545 96.1273 707.167 83.499 708.628C103.997 712.47 123.214 725.642 136.574 740.818Z" fill="#8B949E"/>
</g>
<g opacity="0.6">
<path opacity="0.8" d="M295.795 786.36C304.763 791.484 311.717 798.794 317.94 806.843C318.306 804.648 319.038 802.453 319.77 800.445C315.195 795.139 309.705 790.38 303.848 786.542C290.305 777.764 274.748 775.204 259.192 772.461L264.5 775.021C274.932 778.863 286.095 780.689 295.795 786.36Z" fill="#8B949E"/>
</g>
<g opacity="0.6">
<path opacity="0.8" d="M332.034 793.496C337.341 793.131 334.413 802.457 337.342 803.552C339.721 804.469 342.649 802.64 345.394 803.735C348.322 805.203 350.519 807.394 351.983 810.323C353.996 814.347 353.996 818.003 353.63 822.392C353.447 828.06 353.813 833.917 360.401 835.56C358.388 833.917 357.29 831.536 357.473 828.98C357.656 826.234 358.205 823.487 358.754 820.749C359.669 812.883 356.192 805.021 349.786 800.449C351.067 797.885 351.616 795.139 351.616 792.4C351.433 789.471 350.518 787.094 347.59 786.911C345.028 786.546 342.832 788.376 342.466 790.936V791.118C342.1 794.043 342.466 796.972 343.381 799.715L338.073 799.528C341.001 789.289 337.524 784.899 333.315 786.729C330.57 787.828 330.021 790.749 330.204 794.043C330.936 793.861 331.485 793.678 332.034 793.496Z" fill="#8B949E"/>
</g>
</g>
<defs>
<filter id="filter0_d" x="666" y="335" width="631.478" height="536.588" filterUnits="userSpaceOnUse" color-interpolation-filters="sRGB">
<feFlood flood-opacity="0" result="BackgroundImageFix"/>
<feColorMatrix in="SourceAlpha" type="matrix" values="0 0 0 0 0 0 0 0 0 0 0 0 0 0 0 0 0 0 127 0"/>
<feOffset dy="4"/>
<feGaussianBlur stdDeviation="2"/>
<feColorMatrix type="matrix" values="0 0 0 0 0 0 0 0 0 0 0 0 0 0 0 0 0 0 0.25 0"/>
<feBlend mode="normal" in2="BackgroundImageFix" result="effect1_dropShadow"/>
<feBlend mode="normal" in="SourceGraphic" in2="effect1_dropShadow" result="shape"/>
</filter>
<clipPath id="clip0">
<rect width="1440" height="900" fill="white"/>
</clipPath>
</defs>
</svg>
